<?xml version="1.0" encoding="utf-8"?>
<!-- Generator: Adobe Illustrator 25.0.0, SVG Export Plug-In . SVG Version: 6.00 Build 0)  -->
<svg version="1.1" id="Layer_1" xmlns="http://www.w3.org/2000/svg" xmlns:xlink="http://www.w3.org/1999/xlink" x="0px" y="0px"
	 viewBox="0 0 325.1 84" style="enable-background:new 0 0 325.1 84;" xml:space="preserve">
<style type="text/css">
	.st0{font-family:'Consolas';}
	.st1{font-size:34.5828px;}
</style>
<g>
	<g>
		<path d="M-284.4,20.5l0.2,8.4c0,0.8,0.2,1.5,0.5,1.8c0.3,0.5,0.7,0.7,1.3,0.9c0.5,0.2,1.3,0.3,2.2,0.3c1,0,1.8,0.1,2.7,0.1V33
			l-19.7,0.4v-1.1c1.6-0.1,2.7-0.1,3.5-0.3c0.8-0.1,1.4-0.3,1.8-0.5c0.4-0.3,0.8-0.6,0.9-1c0.2-0.5,0.2-1,0.2-1.7l-0.4-17.5
			c0-1.5-0.1-2.5-0.3-3.1c-0.2-0.6-0.8-1.1-1.7-1.4c-0.9-0.3-2.5-0.4-4.6-0.4V5.3l19-0.4c0.8,0,2.9,0.1,6.1,0.2
			c1,0.1,2.1,0.3,3.3,0.6c1.2,0.4,2.3,0.8,3.3,1.5s1.9,1.4,2.5,2.3s1,1.8,1,2.9c0,1.2-0.3,2.2-0.9,3.2c-0.6,0.9-1.6,1.8-2.9,2.5
			c-1.3,0.7-3,1.3-4.9,1.6c-2,0.5-4.3,0.6-7,0.7L-284.4,20.5z M-290,11l0.4,18.7c-0.3,1.3-0.9,2.1-2.2,2.6h0.7c2-0.1,3-0.8,3.7-2.2
			l-0.4-18.3c-0.8-1.6-0.8-2.7-0.9-3.2c0-0.5-0.2-0.9-0.4-1.3c-0.2-0.4-0.6-0.6-1.1-0.7c-0.5-0.2-1.3-0.3-2.4-0.3
			c0.7,0.3,1.2,0.5,1.5,0.8c0.3,0.3,0.5,0.7,0.6,1.4C-290.4,9.1-290.4,9.9-290,11z M-284.4,19.5l3.8-0.1c2.3,0,4.1-0.3,5.6-0.7
			c1.5-0.5,2.6-1.2,3.4-2.1c0.8-1,1.2-2.3,1.1-3.9c-0.1-2.5-1.2-4.3-3.4-5.5c-0.9-0.5-1.8-0.7-2.7-0.9c-0.9-0.1-2-0.2-3.3-0.2
			c-1.5,0-2.6,0.2-3.3,0.5c-0.7,0.4-1.1,0.8-1.2,1.5c-0.2,0.6-0.2,1.5-0.2,2.8L-284.4,19.5z M-274.1,19c2.1-0.3,3.7-0.9,4.8-2
			c1-1,1.5-2.5,1.5-4.4c0-2-0.6-3.5-1.7-4.5s-2.7-1.6-4.9-1.9c1,0.4,1.9,0.8,2.6,1.5c0.7,0.6,1.3,1.4,1.7,2.2
			c0.4,0.8,0.6,1.7,0.6,2.7C-269.4,15.8-271,17.9-274.1,19z"/>
		<path d="M-186.2,3.2h2.3l0.2,9.1h-1.7c-0.9-1.4-1.9-2.5-2.9-3.5c-1-1-2.1-1.8-3.2-2.5c-1.1-0.6-2.3-1.2-3.6-1.5
			c-1.2-0.3-2.6-0.5-4-0.5c-1.9,0-3.6,0.4-5.2,1.1c-1.5,0.6-2.9,1.6-3.9,2.8c-1.1,1.2-1.9,2.6-2.5,4.4s-0.8,3.5-0.8,5.5
			c0.1,2.7,0.7,5.1,2,7.2c1.3,2.1,3,3.6,5.2,4.8c2.2,1.1,4.7,1.6,7.5,1.6c1.7,0,3.4-0.3,4.9-0.7c1.6-0.5,3.1-1.1,4.5-2
			c1.4-0.9,2.8-2,4-3.3l1.6,0.6c-2,2.3-4.5,4-7.4,5.2s-6.2,1.8-10,1.9c-2.9,0.1-5.7-0.3-8.2-1s-4.7-1.7-6.5-3.1s-3.2-2.9-4.3-4.7
			c-1-1.8-1.5-3.7-1.6-5.7c0-2.2,0.4-4.3,1.4-6.1c1-1.9,2.4-3.5,4.2-4.9s3.9-2.5,6.4-3.3c2.4-0.8,5-1.2,7.7-1.3c1,0,2,0,2.9,0.1
			s2,0.3,3.2,0.5c1.2,0.2,2.1,0.4,2.5,0.5s0.9,0.1,1.5,0.1C-188.4,4.4-187.2,4-186.2,3.2z M-204.6,4.2c-2.8,0.8-5,1.8-6.7,2.9
			c-1,0.6-1.9,1.4-2.7,2.2s-1.4,1.6-1.9,2.5c-0.5,0.9-0.9,1.9-1.2,2.9c-0.3,1.1-0.4,2.1-0.4,3.1c0.1,2.4,0.8,4.6,2.1,6.6
			c1.4,2,3.4,3.6,6,4.9c2.7,1.3,5.8,2.1,9.4,2.3c-2.4-0.5-4.6-1.1-6.5-1.9c-2-0.9-3.7-1.9-5.1-3.2c-1.4-1.3-2.5-2.6-3.2-4.1
			c-0.7-1.5-1.1-3-1.1-4.6c0-1.4,0.2-2.7,0.8-4.2s1.4-2.8,2.4-3.9c1.2-1.3,2.4-2.4,3.6-3.2C-207.8,5.8-206.3,5-204.6,4.2z M-186.8,8
			l-0.2-3.4c-0.8,0.3-1.7,0.5-2.6,0.5c-0.4,0-0.9,0-1.3-0.1c0.9,0.5,1.7,1,2.3,1.5C-188,7-187.4,7.5-186.8,8z"/>
		<path d="M-261.7,33.6l17.6-28.5l3.8-0.1l19.6,27.8l-5.7,0.1L-242,11l-14,22.4L-261.7,33.6z"/>
		<path d="M-331.6,16.8l29.8,8l0.1,1.3l-30.5,9.7l-0.1-2.9l23.4-7.3l-22.6-6.2L-331.6,16.8z"/>
		<path d="M-301.8,23.5l-29.8-7.9l-0.1-1.6l28.3-9.1l0.1,2.5l-21.6,7.3l22.9,6.1L-301.8,23.5z"/>
	</g>
	<path d="M-336.9,46.2c0,0,120.1,31.7,273.9-5.7"/>
	<g>
		<g>
			<g>
				<path d="M-122.8,33.1l25-15h4.4l24.6,13.2l-7.8,0.2l-18.9-9.8l-19.6,11.3L-122.8,33.1z"/>
				<path d="M-54.2-3.5l-44.4,19.8l-4.5,0.1l-18.2-9.3l9.2,3l11.2,3.3l25.5-9.6L-54.2-3.5z"/>
			</g>
		</g>
	</g>
	<text transform="matrix(4.3079 -7.786804e-02 2.188983e-02 0.9998 -140.8561 9.7431)" class="st0 st1">.</text>
	<polygon points="-139.1,10.4 -172.2,10.5 -172.2,5.5 -139.1,5.3 	"/>
	<polygon points="-149.1,20.5 -179.1,20.7 -179.1,15.6 -149.1,15.4 	"/>
	<polygon points="-139.1,31 -173.6,31 -173.6,25.9 -134.5,25.9 	"/>
</g>
<g>
	<g>
		<path d="M60.7,30.5l0.2,8.4c0,0.8,0.2,1.5,0.5,1.8c0.3,0.5,0.7,0.7,1.3,0.9c0.5,0.2,1.3,0.3,2.2,0.3c1,0,1.8,0.1,2.7,0.1V43
			l-19.7,0.4v-1.1c1.6-0.1,2.7-0.1,3.5-0.3c0.8-0.1,1.4-0.3,1.8-0.5c0.4-0.3,0.8-0.6,0.9-1c0.2-0.5,0.2-1,0.2-1.7l-0.4-17.5
			c0-1.5-0.1-2.5-0.3-3.1c-0.2-0.6-0.8-1.1-1.7-1.4s-2.5-0.4-4.6-0.4v-1.1l19-0.4c0.8,0,2.9,0.1,6.1,0.2c1,0.1,2.1,0.3,3.3,0.6
			c1.2,0.4,2.3,0.8,3.3,1.5c1,0.6,1.9,1.4,2.5,2.3s1,1.8,1,2.9c0,1.2-0.3,2.2-0.9,3.2C81,26.5,80,27.4,78.7,28
			c-1.3,0.7-3,1.3-4.9,1.6c-2,0.5-4.3,0.6-7,0.7L60.7,30.5z M55.1,21l0.4,18.7c-0.3,1.3-0.9,2.1-2.2,2.6H54c2-0.1,3-0.8,3.7-2.2
			l-0.4-18.3c-0.8-1.6-0.8-2.7-0.9-3.2c0-0.5-0.2-0.9-0.4-1.3c-0.2-0.4-0.6-0.6-1.1-0.7c-0.5-0.2-1.3-0.3-2.4-0.3
			c0.7,0.3,1.2,0.5,1.5,0.8s0.5,0.7,0.6,1.4C54.7,19.1,54.7,19.9,55.1,21z M60.7,29.6l3.8-0.1c2.3,0,4.1-0.3,5.6-0.7
			c1.5-0.5,2.6-1.2,3.4-2.1c0.8-1,1.2-2.3,1.1-3.9c-0.1-2.5-1.2-4.3-3.4-5.5c-0.9-0.5-1.8-0.7-2.7-0.9c-0.9-0.1-2-0.2-3.3-0.2
			c-1.5,0-2.6,0.2-3.3,0.5s-1.1,0.8-1.2,1.5c-0.2,0.6-0.2,1.5-0.2,2.8L60.7,29.6z M71,29c2.1-0.3,3.7-0.9,4.8-2c1-1,1.5-2.5,1.5-4.4
			c0-2-0.6-3.5-1.7-4.5s-2.7-1.6-4.9-1.9c1,0.4,1.9,0.8,2.6,1.5c0.7,0.6,1.3,1.4,1.7,2.2c0.4,0.8,0.6,1.7,0.6,2.7
			C75.7,25.8,74.1,27.9,71,29z"/>
		<path d="M158.9,13.2h2.3l0.2,9.1h-1.7c-0.9-1.4-1.9-2.5-2.9-3.5s-2.1-1.8-3.2-2.5c-1.1-0.6-2.3-1.2-3.6-1.5
			c-1.2-0.3-2.6-0.5-4-0.5c-1.9,0-3.6,0.4-5.2,1.1c-1.5,0.6-2.9,1.6-3.9,2.8c-1.1,1.2-1.9,2.6-2.5,4.4s-0.8,3.5-0.8,5.5
			c0.1,2.7,0.7,5.1,2,7.2c1.3,2.1,3,3.6,5.2,4.8c2.2,1.1,4.7,1.6,7.5,1.6c1.7,0,3.4-0.3,4.9-0.7c1.6-0.5,3.1-1.1,4.5-2
			c1.4-0.9,2.8-2,4-3.3l1.6,0.6c-2,2.3-4.5,4-7.4,5.2s-6.2,1.8-10,1.9c-2.9,0.1-5.7-0.3-8.2-1s-4.7-1.7-6.5-3.1s-3.2-2.9-4.3-4.7
			c-1-1.8-1.5-3.7-1.6-5.7c0-2.2,0.4-4.3,1.4-6.1c1-1.9,2.4-3.5,4.2-4.9s3.9-2.5,6.4-3.3c2.4-0.8,5-1.2,7.7-1.3c1,0,2,0,2.9,0.1
			c0.9,0.1,2,0.3,3.2,0.5s2.1,0.4,2.5,0.5c0.4,0.1,0.9,0.1,1.5,0.1C156.7,14.4,157.9,14,158.9,13.2z M140.5,14.2
			c-2.8,0.8-5,1.8-6.7,2.9c-1,0.6-1.9,1.4-2.7,2.2c-0.8,0.8-1.4,1.6-1.9,2.5c-0.5,0.9-0.9,1.9-1.2,2.9c-0.3,1.1-0.4,2.1-0.4,3.1
			c0.1,2.4,0.8,4.6,2.1,6.6c1.4,2,3.4,3.6,6,4.9c2.7,1.3,5.8,2.1,9.4,2.3c-2.4-0.5-4.6-1.1-6.5-1.9c-2-0.9-3.7-1.9-5.1-3.2
			c-1.4-1.3-2.5-2.6-3.2-4.1c-0.7-1.5-1.1-3-1.1-4.6c0-1.4,0.2-2.7,0.8-4.2c0.6-1.5,1.4-2.8,2.4-3.9c1.2-1.3,2.4-2.4,3.6-3.2
			C137.3,15.9,138.8,15,140.5,14.2z M158.3,18l-0.2-3.4c-0.8,0.3-1.7,0.5-2.6,0.5c-0.4,0-0.9,0-1.3-0.1c0.9,0.5,1.7,1,2.3,1.5
			C157.1,17,157.7,17.5,158.3,18z"/>
		<path d="M83.4,43.7L101,15.1l3.8-0.1l19.6,27.8l-5.7,0.1L103.1,21l-14,22.4L83.4,43.7z"/>
		<path d="M13.5,26.8l29.8,8l0.1,1.3l-30.5,9.7l-0.1-2.9l23.4-7.3l-22.6-6.2L13.5,26.8z"/>
		<path d="M43.3,33.5l-29.8-7.9l-0.1-1.6l28.3-9.1l0.1,2.5l-21.6,7.3l22.9,6.1L43.3,33.5z"/>
	</g>
	<path d="M8.2,56.3c0,0,120.1,31.7,273.9-5.7"/>
	<g>
		<g>
			<g>
				<path d="M222.3,43.2l25-15h4.4l24.6,13.2l-7.8,0.2l-18.9-9.8L230,43L222.3,43.2z"/>
				<path d="M290.9,6.5l-44.4,19.8l-4.5,0.1l-18.2-9.3l9.2,3l11.2,3.3l25.5-9.6L290.9,6.5z"/>
			</g>
		</g>
	</g>
	<text transform="matrix(4.3079 -7.786804e-02 2.188983e-02 0.9998 204.2439 19.7719)" class="st0 st1">.</text>
	<polygon points="206,20.4 172.9,20.6 172.9,15.5 206,15.3 	"/>
	<polygon points="196,30.5 166,30.7 166,25.6 196,25.5 	"/>
	<polygon points="206,41 171.5,41 171.5,35.9 210.6,35.9 	"/>
</g>
</svg>
