<?xml version="1.0" encoding="utf-8"?>
<!-- Generator: Adobe Illustrator 25.0.0, SVG Export Plug-In . SVG Version: 6.00 Build 0)  -->
<svg version="1.1" id="Layer_1" xmlns="http://www.w3.org/2000/svg" xmlns:xlink="http://www.w3.org/1999/xlink" x="0px" y="0px"
	 viewBox="0 0 286 75" style="enable-background:new 0 0 286 75;" xml:space="preserve">
<style type="text/css">
	.st0{font-family:'Consolas';}
	.st1{font-size:38.0599px;}
</style>
<g>
	<g>
		<path d="M61.6,35.2l0.2,9.2c0,0.9,0.2,1.6,0.5,2c0.3,0.5,0.7,0.8,1.3,1c0.5,0.2,1.3,0.3,2.2,0.3c1,0,1.8,0.1,2.7,0.1l0,1.2
			l-19.7,0.4l0-1.2c1.6-0.1,2.7-0.1,3.5-0.3c0.8-0.1,1.4-0.3,1.8-0.6c0.4-0.3,0.8-0.7,0.9-1.1c0.2-0.5,0.2-1.1,0.2-1.9l-0.4-19.3
			c0-1.6-0.1-2.7-0.3-3.4c-0.2-0.7-0.8-1.2-1.7-1.5c-0.9-0.3-2.5-0.4-4.6-0.4l0-1.2l19-0.4c0.8,0,2.9,0.1,6.1,0.2
			c1,0.1,2.1,0.3,3.3,0.7c1.2,0.4,2.3,0.9,3.3,1.6c1,0.7,1.9,1.5,2.5,2.5c0.6,1,1,2,1,3.2c0,1.3-0.3,2.4-0.9,3.5
			c-0.6,1-1.6,2-2.9,2.7c-1.3,0.8-3,1.4-4.9,1.8c-2,0.5-4.3,0.7-7,0.8L61.6,35.2z M56,24.8l0.4,20.6c-0.3,1.4-0.9,2.3-2.2,2.9l0.7,0
			c2-0.1,3-0.9,3.7-2.4l-0.4-20.1c-0.8-1.8-0.8-3-0.9-3.5c0-0.6-0.2-1-0.4-1.4c-0.2-0.4-0.6-0.7-1.1-0.8c-0.5-0.2-1.3-0.3-2.4-0.3
			c0.7,0.3,1.2,0.6,1.5,0.9c0.3,0.3,0.5,0.8,0.6,1.5C55.6,22.7,55.6,23.6,56,24.8z M61.6,34.2l3.8-0.1c2.3,0,4.1-0.3,5.6-0.8
			c1.5-0.5,2.6-1.3,3.4-2.3c0.8-1.1,1.2-2.5,1.1-4.3c-0.1-2.7-1.2-4.7-3.4-6c-0.9-0.5-1.8-0.8-2.7-1c-0.9-0.1-2-0.2-3.3-0.2
			c-1.5,0-2.6,0.2-3.3,0.6c-0.7,0.4-1.1,0.9-1.2,1.6c-0.2,0.7-0.2,1.7-0.2,3.1L61.6,34.2z M71.9,33.6c2.1-0.3,3.7-1,4.8-2.2
			c1-1.1,1.5-2.8,1.5-4.8c0-2.2-0.6-3.8-1.7-4.9c-1.1-1.1-2.7-1.8-4.9-2.1c1,0.4,1.9,0.9,2.6,1.6c0.7,0.7,1.3,1.5,1.7,2.4
			c0.4,0.9,0.6,1.9,0.6,3C76.6,30.1,75,32.4,71.9,33.6z"/>
		<path d="M159.8,16.2l2.3,0l0.2,10l-1.7,0c-0.9-1.5-1.9-2.7-2.9-3.8c-1-1.1-2.1-2-3.2-2.7c-1.1-0.7-2.3-1.3-3.6-1.6
			c-1.2-0.3-2.6-0.5-4-0.5c-1.9,0-3.6,0.4-5.2,1.2c-1.5,0.7-2.9,1.8-3.9,3.1c-1.1,1.3-1.9,2.9-2.5,4.8c-0.6,1.9-0.8,3.9-0.8,6
			c0.1,3,0.7,5.6,2,7.9c1.3,2.3,3,4,5.2,5.3c2.2,1.2,4.7,1.8,7.5,1.8c1.7,0,3.4-0.3,4.9-0.8c1.6-0.5,3.1-1.2,4.5-2.2
			c1.4-1,2.8-2.2,4-3.6l1.6,0.7c-2,2.5-4.5,4.4-7.4,5.7c-2.9,1.3-6.2,2-10,2.1c-2.9,0.1-5.7-0.3-8.2-1.1c-2.5-0.8-4.7-1.9-6.5-3.4
			c-1.8-1.5-3.2-3.2-4.3-5.2c-1-2-1.5-4.1-1.6-6.3c0-2.4,0.4-4.7,1.4-6.7c1-2.1,2.4-3.9,4.2-5.4c1.8-1.5,3.9-2.7,6.4-3.6
			c2.4-0.9,5-1.3,7.7-1.4c1,0,2,0,2.9,0.1c0.9,0.1,2,0.3,3.2,0.5c1.2,0.2,2.1,0.4,2.5,0.5c0.4,0.1,0.9,0.1,1.5,0.1
			C157.6,17.5,158.8,17.1,159.8,16.2z M141.4,17.3c-2.8,0.9-5,2-6.7,3.2c-1,0.7-1.9,1.5-2.7,2.4c-0.8,0.9-1.4,1.8-1.9,2.8
			c-0.5,1-0.9,2.1-1.2,3.2c-0.3,1.2-0.4,2.3-0.4,3.4c0.1,2.6,0.8,5.1,2.1,7.3c1.4,2.2,3.4,4,6,5.4c2.7,1.4,5.8,2.3,9.4,2.5
			c-2.4-0.5-4.6-1.2-6.5-2.1c-2-1-3.7-2.1-5.1-3.5c-1.4-1.4-2.5-2.9-3.2-4.5c-0.7-1.6-1.1-3.3-1.1-5.1c0-1.5,0.2-3,0.8-4.6
			c0.6-1.6,1.4-3.1,2.4-4.3c1.2-1.4,2.4-2.6,3.6-3.5C138.2,19.1,139.7,18.2,141.4,17.3z M159.2,21.5l-0.2-3.7
			c-0.8,0.3-1.7,0.5-2.6,0.5c-0.4,0-0.9,0-1.3-0.1c0.9,0.6,1.7,1.1,2.3,1.6C158,20.4,158.6,20.9,159.2,21.5z"/>
		<path d="M178.8,31.8l0.2,9.3c0,1.1,0.1,1.9,0.3,2.5c0.2,0.6,0.6,1,1.1,1.3c0.5,0.3,1.2,0.4,2.2,0.5c0.9,0.1,2.2,0.1,3.8,0
			c2,0,3.7-0.3,5.3-0.8c1.6-0.5,3-1.3,4.4-2.3c1.4-1,2.9-2.3,4.5-3.9l0,0l-2.9,8.1L167,47.1l0-1.2c1.5-0.1,2.6-0.2,3.3-0.4
			c0.8-0.2,1.3-0.6,1.6-1c0.3-0.5,0.5-1.1,0.4-2L172,20.6c0-1-0.2-1.8-0.5-2.2c-0.3-0.5-0.8-0.8-1.5-0.9c-0.7-0.2-1.9-0.3-3.5-0.3
			l0-1l33-0.7l3.5,6.9l-2,0c-1.1-1-2.4-2-4-2.8c-1.6-0.8-3.3-1.5-5.3-2c-1.9-0.5-4-0.7-6.1-0.7c-1.7,0-3,0.2-3.8,0.5
			c-0.8,0.3-1.4,0.7-1.7,1.2c-0.3,0.5-0.4,1.2-0.4,2l0.2,9.1l4.9-0.1c4.3-0.1,6.4-1.8,6.4-5.1l1.7,0l0.2,12l-1.6,0
			c-0.2-1.7-0.9-3-1.9-3.8c-1-0.8-2.5-1.1-4.6-1.1L178.8,31.8z M173.1,21.1l0.4,21.2c0,1.1-0.1,1.9-0.4,2.4
			c-0.3,0.5-0.7,0.9-1.3,1.3c1.5,0,2.4-0.4,2.9-1c0.4-0.6,0.6-1.6,1.1-3l-0.4-21.3c-0.5-1.2-0.8-2.1-1.3-2.4
			c-0.5-0.4-1.5-0.6-2.8-0.6c0.7,0.3,1.1,0.7,1.4,1.1C172.9,19.2,173,20,173.1,21.1z M190.8,32.9l-0.1-4.3c-0.7,1-1.9,1.7-3.8,2.2
			c1,0.2,1.8,0.4,2.3,0.7C189.9,31.8,190.4,32.3,190.8,32.9z M195.3,16.5l-4.9,0.1c1.3,0.3,2.5,0.8,3.6,1.2c1,0.5,2.2,1.1,3.3,1.8
			L195.3,16.5z M197.1,45.5l1.8-3.9c-1,1-2,1.7-2.8,2.2c-0.8,0.5-2.1,1.1-3.6,1.8L197.1,45.5z"/>
		<path d="M84.3,49.7l17.6-31.4l3.8-0.1l19.6,30.6l-5.7,0.1L104,24.8l-14,24.7L84.3,49.7z"/>
		<g>
			<path d="M215.2,47.1l-5.5,0 M250.2,46.4l-5.5,0"/>
		</g>
		<path d="M14.4,31.2L44.2,40l0.1,1.4L13.8,52.1l-0.1-3.2l23.4-8l-22.6-6.8L14.4,31.2z"/>
		<path d="M44.2,38.5l-29.8-8.7l-0.1-1.8l28.3-10l0.1,2.8l-21.6,8l22.9,6.7L44.2,38.5z"/>
	</g>
	<path d="M0.1,53.8c0,0,120.1,34.9,273.9-6.3"/>
	<g>
		<g>
			<g>
				<path d="M211.2,47.2l25-16.5l4.4,0l24.6,14.5l-7.8,0.2l-18.9-10.8L218.9,47L211.2,47.2z"/>
				<path d="M279.8,6.9l-44.4,21.8l-4.5,0.1l-18.2-10.2l9.2,3.3l11.2,3.6l25.5-10.6L279.8,6.9z"/>
			</g>
		</g>
	</g>
	<text transform="matrix(3.9143 -7.787114e-02 1.989000e-02 0.9998 193.1189 21.4605)" class="st0 st1">.</text>
</g>
</svg>
