<?xml version="1.0" encoding="utf-8"?>
<!-- Generator: Adobe Illustrator 25.0.0, SVG Export Plug-In . SVG Version: 6.00 Build 0)  -->
<svg version="1.1" id="Layer_1" xmlns="http://www.w3.org/2000/svg" xmlns:xlink="http://www.w3.org/1999/xlink" x="0px" y="0px"
	 viewBox="0 0 226 72" style="enable-background:new 0 0 226 72;" xml:space="preserve">
<style type="text/css">
	.st0{fill:#FFFFFF;stroke:#000000;stroke-miterlimit:10;}
	.st1{font-family:'Consolas';}
	.st2{font-size:31.7261px;}
</style>
<g>
	<g>
		<path class="st0" d="M51.1,28.4l0.1,7.7c0,0.7,0.1,1.3,0.4,1.7c0.2,0.4,0.6,0.7,1,0.8c0.4,0.2,1,0.3,1.7,0.3
			c0.7,0,1.4,0.1,2.1,0.1l0,1L41,40.3l0-1c1.2-0.1,2.1-0.1,2.7-0.2c0.6-0.1,1.1-0.3,1.4-0.5c0.4-0.3,0.6-0.6,0.7-1
			c0.1-0.4,0.2-0.9,0.2-1.6l-0.3-16.1c0-1.3-0.1-2.3-0.3-2.9c-0.2-0.6-0.6-1-1.3-1.2c-0.7-0.3-1.9-0.4-3.6-0.3l0-1l14.8-0.3
			c0.7,0,2.2,0.1,4.7,0.2c0.8,0,1.7,0.2,2.6,0.6c0.9,0.3,1.8,0.8,2.6,1.4c0.8,0.6,1.5,1.3,2,2.1c0.5,0.8,0.8,1.7,0.8,2.6
			c0,1.1-0.2,2-0.7,2.9c-0.5,0.9-1.2,1.6-2.2,2.3s-2.3,1.2-3.9,1.5c-1.6,0.4-3.4,0.6-5.4,0.6L51.1,28.4z M46.6,19.8L47,37
			c-0.2,1.2-0.7,1.9-1.7,2.4l0.5,0c1.5-0.1,2.3-0.7,2.9-2l-0.3-16.7c-0.6-1.5-0.6-2.5-0.7-2.9c0-0.5-0.1-0.9-0.3-1.2
			c-0.2-0.3-0.5-0.6-0.9-0.7c-0.4-0.1-1-0.2-1.9-0.3c0.6,0.2,1,0.5,1.2,0.8c0.2,0.3,0.4,0.7,0.5,1.2C46.3,18,46.4,18.8,46.6,19.8z
			 M51.1,27.6l2.9-0.1c1.8,0,3.2-0.3,4.4-0.7c1.2-0.4,2-1,2.7-1.9c0.6-0.9,0.9-2.1,0.9-3.6c0-2.2-0.9-3.9-2.7-5
			c-0.7-0.4-1.4-0.7-2.1-0.8c-0.7-0.1-1.6-0.2-2.6-0.1c-1.2,0-2,0.2-2.6,0.5c-0.5,0.3-0.8,0.8-1,1.3c-0.1,0.6-0.2,1.5-0.2,2.6
			L51.1,27.6z M59.1,27.1c1.7-0.3,2.9-0.9,3.7-1.8c0.8-1,1.2-2.3,1.2-4c0-1.8-0.5-3.2-1.3-4.1c-0.9-0.9-2.1-1.5-3.8-1.7
			c0.8,0.3,1.5,0.8,2.1,1.3c0.6,0.6,1,1.2,1.3,2c0.3,0.8,0.4,1.6,0.5,2.5C62.7,24.2,61.5,26.2,59.1,27.1z"/>
		<path class="st0" d="M127.5,12.6l1.8,0l0.2,8.3l-1.3,0c-0.7-1.2-1.4-2.3-2.2-3.2c-0.8-0.9-1.6-1.7-2.5-2.3c-0.9-0.6-1.8-1-2.8-1.3
			c-1-0.3-2-0.4-3.1-0.4c-1.5,0-2.8,0.4-4,1c-1.2,0.6-2.2,1.5-3.1,2.6c-0.8,1.1-1.5,2.4-1.9,4c-0.5,1.6-0.7,3.2-0.6,5
			c0,2.5,0.6,4.7,1.5,6.6c1,1.9,2.3,3.4,4,4.4c1.7,1,3.7,1.5,5.8,1.5c1.3,0,2.6-0.2,3.8-0.7c1.2-0.4,2.4-1,3.5-1.8
			c1.1-0.8,2.2-1.8,3.1-3l1.3,0.6c-1.6,2.1-3.5,3.7-5.7,4.7c-2.2,1.1-4.8,1.7-7.8,1.7c-2.3,0-4.4-0.3-6.4-0.9
			c-1.9-0.7-3.6-1.6-5.1-2.8c-1.4-1.2-2.5-2.7-3.3-4.3c-0.8-1.7-1.2-3.4-1.2-5.3c0-2,0.3-3.9,1.1-5.6c0.8-1.7,1.9-3.2,3.3-4.5
			c1.4-1.3,3.1-2.3,5-3c1.9-0.7,3.9-1.1,6-1.1c0.8,0,1.6,0,2.2,0.1c0.7,0.1,1.5,0.2,2.5,0.4c1,0.2,1.6,0.3,2,0.4
			c0.3,0.1,0.7,0.1,1.2,0.1C125.9,13.7,126.8,13.3,127.5,12.6z M113.2,13.5c-2.1,0.8-3.9,1.7-5.3,2.7c-0.8,0.6-1.5,1.3-2.1,2
			c-0.6,0.7-1.1,1.5-1.5,2.4c-0.4,0.8-0.7,1.7-0.9,2.7c-0.2,1-0.3,1.9-0.3,2.8c0,2.2,0.6,4.2,1.7,6.1c1.1,1.8,2.6,3.3,4.7,4.5
			c2.1,1.2,4.5,1.9,7.4,2.1c-1.9-0.4-3.6-1-5.1-1.8c-1.5-0.8-2.9-1.8-3.9-2.9c-1.1-1.1-1.9-2.4-2.5-3.7c-0.6-1.3-0.9-2.8-0.9-4.2
			c0-1.2,0.2-2.5,0.6-3.9c0.4-1.4,1.1-2.6,1.9-3.6c0.9-1.2,1.9-2.2,2.8-2.9C110.8,15.1,111.9,14.3,113.2,13.5z M127.1,17.1l-0.2-3.1
			c-0.7,0.3-1.3,0.4-2.1,0.4c-0.3,0-0.7,0-1-0.1c0.7,0.5,1.3,0.9,1.8,1.3C126.1,16.1,126.6,16.6,127.1,17.1z"/>
		<path class="st0" d="M142.3,25.6l0.1,7.7c0,0.9,0.1,1.6,0.3,2.1c0.2,0.5,0.4,0.9,0.8,1.1c0.4,0.2,1,0.4,1.7,0.4c0.7,0,1.7,0.1,3,0
			c1.5,0,2.9-0.3,4.1-0.7c1.2-0.4,2.3-1.1,3.4-1.9c1.1-0.8,2.2-1.9,3.5-3.3l0,0l-2.3,6.7l-23.8,0.5l0-1c1.1,0,2-0.2,2.6-0.3
			c0.6-0.2,1-0.5,1.3-0.9c0.2-0.4,0.4-0.9,0.3-1.7l-0.3-18.2c0-0.9-0.1-1.5-0.4-1.9c-0.2-0.4-0.6-0.6-1.2-0.8
			c-0.6-0.1-1.5-0.2-2.7-0.2l0-0.9l25.7-0.5l2.7,5.8l-1.6,0c-0.9-0.9-1.9-1.7-3.1-2.4c-1.2-0.7-2.6-1.3-4.1-1.7
			c-1.5-0.4-3.1-0.6-4.8-0.6c-1.3,0-2.3,0.2-3,0.4c-0.7,0.3-1.1,0.6-1.3,1c-0.2,0.4-0.3,1-0.3,1.7l0.1,7.6l3.8-0.1
			c3.3-0.1,5-1.5,5-4.3l1.3,0l0.2,10l-1.3,0c-0.2-1.5-0.7-2.5-1.5-3.1c-0.8-0.6-2-1-3.6-0.9L142.3,25.6z M137.9,16.7l0.3,17.7
			c0,0.9-0.1,1.5-0.3,2c-0.2,0.4-0.6,0.8-1,1.1c1.2,0,1.9-0.3,2.2-0.8c0.3-0.5,0.5-1.4,0.8-2.5l-0.3-17.7c-0.4-1-0.6-1.7-1-2
			c-0.4-0.3-1.1-0.5-2.2-0.5c0.5,0.2,0.9,0.6,1.1,1C137.8,15.1,137.9,15.8,137.9,16.7z M151.8,26.5l-0.1-3.6
			c-0.5,0.8-1.5,1.4-2.9,1.9c0.8,0.2,1.4,0.4,1.8,0.6C151,25.6,151.4,26,151.8,26.5z M155.3,12.9l-3.8,0.1c1.1,0.3,2,0.6,2.8,1
			c0.8,0.4,1.7,0.9,2.6,1.5L155.3,12.9z M156.6,37l1.4-3.2c-0.8,0.8-1.5,1.4-2.2,1.8c-0.7,0.4-1.6,0.9-2.8,1.5L156.6,37z"/>
		<path class="st0" d="M68.8,40.6l13.7-26.1l2.9-0.1l15.3,25.5L96.2,40L84.1,19.8L73.2,40.5L68.8,40.6z"/>
		<g>
			<path class="st0" d="M170.8,38.4l-4.3,0 M198.1,37.8l-4.3,0"/>
		</g>
		<path class="st0" d="M14.3,25.1l23.2,7.3l0,1.2l-23.8,8.9l0-2.7L32,33.3l-17.6-5.6L14.3,25.1z"/>
		<path class="st0" d="M37.5,31.2l-23.2-7.3l0-1.5l22.1-8.3l0,2.3l-16.8,6.6l17.9,5.6L37.5,31.2z"/>
	</g>
	<path class="st0" d="M3.1,49c0,0,93.6,29.1,213.5-5.3"/>
	<g>
		<g>
			<g>
				<path class="st0" d="M167.6,38.4l19.5-13.8l3.4,0l19.2,12.1l-6.1,0.1l-14.7-9l-15.2,10.5L167.6,38.4z"/>
				<path class="st0" d="M221.1,4.9L186.5,23l-3.5,0.1l-14.2-8.5l7.2,2.8l8.7,3l19.9-8.8L221.1,4.9z"/>
			</g>
		</g>
	</g>
	<text transform="matrix(3.6599 -7.787323e-02 1.859731e-02 0.9998 153.5438 17.0024)" class="st0 st1 st2">.</text>
</g>
</svg>
